<svg xmlns="http://www.w3.org/2000/svg" viewBox="0 0 357.64 351.48"><defs><style>.cls-1{fill:#f0f0f0;}</style></defs><g id="Camada_2" data-name="Camada 2"><g id="trevo"><path id="_4" data-name="4" class="cls-1" d="M108.71,311a49.37,49.37,0,0,1,4.72-31.63l7-10.24,59.86-86.81,86.48,59.62,11,7.6a49.41,49.41,0,1,1-73,66A49.41,49.41,0,0,1,108.71,311Z"/><path class="cls-1" d="M40.48,106.59a50.09,50.09,0,0,1,9.47-.82,49.22,49.22,0,0,1,22.17,5.53l10.23,7.06,86.82,59.86-59.63,86.47-7.6,11a49.41,49.41,0,1,1-65.94-73,49.41,49.41,0,0,1,4.48-96.15Z"/><path class="cls-1" d="M249.65,40.48a50.09,50.09,0,0,1,.82,9.47,49.35,49.35,0,0,1-5.53,22.17l-7.06,10.23L178,169.17,91.55,109.54l-11-7.6A49.41,49.41,0,1,1,153.5,36a49.41,49.41,0,0,1,96.15,4.48Z"/><path class="cls-1" d="M317.15,245.46a50,50,0,0,1-9.46.81,49.06,49.06,0,0,1-22.17-5.53l-10.24-7.05-86.81-59.86,59.62-86.48,7.6-11a49.41,49.41,0,1,1,65.95,73,49.41,49.41,0,0,1-4.49,96.15Z"/></g></g></svg>